<?xml version="1.0" standalone="yes"?>
<svg xmlns="http://www.w3.org/2000/svg" width="500" height="481">
<path style="fill:#373535; stroke:none;" d="M0 0L0 481L500 481L500 0L0 0z"/>
<path style="fill:#07a559; stroke:none;" d="M230 5L231 6L230 5z"/>
<path style="fill:#faef13; stroke:none;" d="M213 8C213.278 14.4651 216.933 24.8083 214.396 30.8665C211.833 36.9857 191.266 37.6513 185 39.8642C182.392 40.785 178.954 42.9108 176.133 41.7624C169.681 39.1363 170.563 28.0425 166.006 23.618C163.473 21.1585 158.899 23.1198 156 23.8843C147.243 26.1937 137.027 29.6065 130.152 35.7608C121.28 43.703 140.715 54.5319 134.577 62.8156C131.684 66.7205 115.727 79.9631 111 78.669C104.363 76.8517 101.052 67.7741 95 64.7369C88.9123 61.6817 76.7268 73.7925 73.1528 78.0146C65.1095 87.5167 84.1113 93.4742 84.9637 102C85.499 107.353 76.7304 114.63 74 119C83.5307 124.429 92.0851 131.764 101 138.14C104.018 140.299 108.884 145.17 112.91 143.172C117.368 140.961 120.641 134.555 124.039 131C131.864 122.813 139.951 114.739 149 107.898C181.81 83.0964 223.31 73.3003 264 76.0895C294.906 78.208 324.189 92.8476 349 110.579C358.335 117.25 367.207 124.388 376 131.754C378.986 134.255 382.845 139.171 387 139.407C390.861 139.627 395.748 135.943 399 134.139C407.99 129.153 417.417 124.661 426 119C422.52 114.04 412.634 107.059 411.921 101C411.235 95.1649 420.849 90.6511 423.289 86C426.432 80.0066 416.386 70.9742 412.715 67.0895C410.94 65.212 408.971 63.5391 406.999 61.8742C394.237 51.0988 392.367 71.2472 381 71.5301C377.414 71.6193 373.738 67.6345 371 65.7215C364.354 61.0781 357.231 56.9069 350 53.2477C347.32 51.8912 342.69 50.3489 342.16 46.8951C341.326 41.4485 348.735 32.8521 351 28C342.187 22.8564 324.912 13.1178 314.214 15.4074C306.875 16.9779 307.881 32.2766 301.786 36.3063C299.125 38.0662 295.834 36.8038 293 36.2107C286.457 34.8413 266.499 35.7146 263.028 29.8519C259.712 24.2521 262 12.3884 262 6L213 8z"/>
<path style="fill:#07a559; stroke:none;" d="M256 5L257 6L256 5M222 6L223 7L222 6M216 7L217 8L216 7M237 10L237 11L240 11L237 10z"/>
<path style="fill:#373535; stroke:none;" d="M222 39L198 41.8873L171 51L162 28C155.459 29.3538 135.014 33.4069 134.708 42.0154C134.447 49.386 142.935 57.833 145 65C136.539 67.6783 128.72 73.7797 122 79.4391C119.232 81.77 115.784 86.5257 112.004 87.0787C104.893 88.1189 99.7861 73.1916 93 71.331C88.2653 70.0329 77.6914 79.0346 78.7515 84C80.0624 90.1401 90.1048 97.5518 95 101L95 102L83 118C88.9951 121.967 102.712 134.603 109.985 133.897C114.022 133.506 117.417 127.663 120.015 125C127.332 117.499 134.657 110.024 143 103.654C165.188 86.7154 191.491 76.4993 219 72.4275C262.109 66.0467 301.955 74.3506 339 97.4251C350.142 104.365 360.848 112.107 371 120.424C375.501 124.112 381.16 131.015 387 132.331C393.342 133.76 403.617 125.249 408.999 122.309C411.12 121.15 415.364 119.774 415.364 116.787C415.365 111.57 405.905 103.808 402 101L402 100C406.345 96.2415 415.056 89.5818 416.694 84C418.29 78.5592 405.435 64.7451 400 65.1173C393.042 65.5937 387.018 81.6853 379.715 78.9799C373.887 76.8215 368.233 70.4644 363 67.0038C353.273 60.5714 342.747 55.4685 332 51L343 30C337.973 27.1392 319.84 17.528 315.075 23.3326C311.055 28.2302 310.85 40.956 304.725 43.6721C300.89 45.3726 293.895 42.0342 290 41.2107C278.748 38.8318 267.013 40.6219 256 38C257.499 32.9291 259.448 17.0027 255.972 12.6034C251.711 7.20929 233.895 10.5775 228 11.2855C225.693 11.5625 221.578 11.548 220.042 13.6026C216.988 17.689 220.6 34.2644 222 39z"/>
<path style="fill:#07a559; stroke:none;" d="M248 10L248 11L251 11L248 10M226 11L227 12L226 11M213 13L214 14L213 13M229 13L230 14L229 13z"/>
<path style="fill:#faef13; stroke:none;" d="M222 14L222.958 39.6821L209 42.5764L170 54C168.866 49.2238 164.818 33.3524 159.725 31.7878C153.472 29.8666 142.288 37.2182 137 40L148 66C139.163 68.7964 130.962 75.026 124 81.0008C120.738 83.7997 116.262 89.5605 112.039 90.6543C105.544 92.3369 99.2834 76.1484 93 74.3063C88.5172 72.9922 83.1218 79.4664 80 82L80 83L95.6551 102L86 117L111 132C153.487 70.9683 249.104 50.6761 315 81.7809C333.233 90.3873 350.102 101.038 366 113.424C371.43 117.655 381.023 129.399 388 129.913C392.441 130.24 412.791 119.828 411.503 114.957C410.026 109.371 400.894 106.248 401.167 100C401.461 93.2847 411.87 90.2213 413.694 84C415.391 78.2078 404.54 70.5398 401 67L400 67L381.424 82.4036L370 74.8843L342 58.2469L330.665 51.2917L340 31C334.911 28.6193 323.966 22.3817 318.275 24.6435C312.782 26.8265 309.16 42.7355 307 48C295.083 44.6432 282.459 41.1521 270 41.0038C265.968 40.9559 257.648 42.6089 255.028 38.6821C251.382 33.2191 254 19.4537 254 13L222 14z"/>
<path style="fill:#07a559; stroke:none;" d="M221 15L222 16L221 15M317 15L318 16L317 15M219 18L220 19L219 18M329 18L330 19L329 18M332 19L333 20L332 19M319 21L320 22L319 21M161 22L162 23L161 22M323 22L324 23L323 22M157 23L158 24L157 23M214 23L215 24L214 23M153 24L154 25L153 24M222 24L223 25L222 24M150 25L151 26L150 25M325 25L326 26L325 25M147 26L148 27L147 26M307 26L308 27L307 26M313 26L314 27L313 26M335 26L336 27L335 26M331 27L332 28L331 27M168 28L169 29L168 28M220 28L221 29L220 28M140 29L141 30L140 29M336 29L337 30L336 29M138 30L139 31L138 30M305 31L306 32L305 31M311 31L312 32L311 31M154 32L155 33L154 32M348 32L349 33L348 32M133 33L134 34L133 33M151 33L152 34L151 33M170 33L171 34L170 33M275 33L276 34L275 33M209.667 34.3333L210.333 34.6667L209.667 34.3333M223 34L224 35L223 34M283 34L284 35L283 34M338 34L339 35L338 34M130 35L131 36L130 35M201 35L202 36L201 35M196 36L197 37L196 36M192 37L193 38L192 37M256 37L257 38L256 37M339 37L340 38L339 37M189 38L190 39L189 38M221 38L222 39L221 38M134 39L135 40L134 39M164 39L165 40L164 39M219.667 39.3333L220.333 39.6667L219.667 39.3333M279 39L280 40L279 39M167 40L168 41L167 40M183 40L184 41L183 40M205 40L206 41L205 40M136 41L137 42L136 41M199 41L200 42L199 41M276 41L277 42L276 41M175 42L176 43L175 42M195 42L196 43L195 42M208.667 42.3333L209.333 42.6667L208.667 42.3333M283 42L284 43L283 42M295 42L296 43L295 42M309 42L310 43L309 42M137 43L138 44L137 43M201 43L202 44L201 43M299 43L300 44L299 43M333 43L334 44L333 43M342 43L343 44L342 43M166 44L167 45L166 44M293 44L294 45L293 44M138 45L139 46L138 45M169 45L170 46L169 45M193 45L194 46L193 45M297 45L298 46L297 45M183 46L184 47L183 46M301 46L302 47L301 46M139 47L140 48L139 47M305 47L306 48L305 47M333 48L334 49L333 48M176 49L177 50L176 49M171 50L172 51L171 50M329 51L330 52L329 51M139 52L140 53L139 52M175 52L176 53L175 52M170 53L171 54L170 53M331 53L332 54L331 53M140 54L141 55L140 54M339 54L340 55L339 54M141 56L142 57L141 56M340 57L341 58L340 57M357 57L358 58L357 57M142 58L143 59L142 58M342 58L343 59L342 58M344 59L345 60L344 59M346 60L347 61L346 60M362 60L363 61L362 60M395 60L396 61L395 60M348 61L349 62L348 61M353 61L354 62L353 61M394 61L395 62L394 61M350 62L351 63L350 62M94 63L95 64L94 63M408 63L409 64L408 63M90 64L91 65L90 64M147 65L148 66L147 65M402 65L403 66L402 65M87 66L88 67L87 66M130 66L131 67L130 66M139 67L140 68L139 67M399 67L400 68L399 67M84 68L85 69L84 68M127 68L128 69L127 68M142 68L143 69L142 68M234.667 68.3333L235.333 68.6667L234.667 68.3333M266 68L267 69L266 68M360 68L361 69L360 68M398 68L399 69L398 68M223 69L224 70L223 69M274 69L275 70L274 69M403 69L404 70L403 69M414 69L415 70L414 69M134 70L135 71L134 70M242 70L242 71L249 71L242 70M260 70L260 71L263 71L260 70M280 70L281 71L280 70M363 70L364 71L363 70M404 70L405 71L404 70M415 70L416 71L415 70M123 71L124 72L123 71M226 71L227 72L226 71M272 71L273 72L272 71M285 71L286 72L285 71M405 71L406 72L405 71M79 72L80 73L79 72M88 72L89 73L88 72M218 72L219 73L218 72M278 72L279 73L278 72M289 72L290 73L289 72M366 72L367 73L366 72M370 72L371 73L370 72M380.667 72.3333L381.333 72.6667L380.667 72.3333M406 72L407 73L406 72M200 73L201 74L200 73M212 73L213 74L212 73M283 73L284 74L283 73M407 73L408 74L407 73M128 74L129 75L128 74M287 74L288 75L287 74M296 74L297 75L296 74M388 74L389 75L388 74M408 74L409 75L408 74M84 75L85 76L84 75M202 75L203 76L202 75M291 75L292 76L291 75M299 75L300 76L299 75M370 75L371 76L370 75M374 75L375 76L374 75M387 75L388 76L387 75M412 75L413 76L412 75M117 76L118 77L117 76M198 76L199 77L198 76M233.667 76.3333L234.333 76.6667L233.667 76.3333M267 76L268 77L267 76M302 76L303 77L302 76M128 77L129 78L128 77M223 77L224 78L223 77M191 78L192 79L191 78M217 78L218 79L217 78M280 78L281 79L280 78M374 78L375 79L374 78M83 79L84 80L83 79M188 79L189 80L188 79M211 79L212 80L211 79M303 79L304 80L303 79M379 79L380 80L379 79M422 79L423 80L422 79M185 80L186 81L185 80M312 80L313 81L312 80M413 80L414 81L413 80M416 80L417 81L416 80M230.667 81.3333L231.333 81.6667L230.667 81.3333z"/>
<path style="fill:#f9f8f8; stroke:none;" d="M93 139C86.06 149.352 94.6141 150.712 95.5779 161C96.1003 166.575 91.9815 173.552 88.8951 177.96C81.041 189.177 68.7869 180.185 61 189L61 190C64.7363 193.747 69.3908 197.601 70.6049 203C74.2024 218.999 58.9573 232.561 44 229C43.0478 235.25 51.7628 235.644 55.9599 238.789C61.9913 243.309 63.251 248.894 63 256L134 256C134.336 239.737 134.952 222.675 144.927 209C149.874 202.219 157.105 197.996 162.363 191.7C170.902 181.476 174.786 170.544 186 162L186 161L139 158C142.97 165.157 154.99 177.933 153.882 186.424C151.327 206.002 120.647 207.4 110.8 193.96C103.645 184.194 113.005 173.762 117.769 165C121.512 158.117 125.952 144.918 133.093 141.028C138.165 138.266 147.362 140 153 140L202 140L202 112L203.603 101.603L214 100L242 100L242 81C208.591 81.0036 175.307 93.0045 149 113.425C139.786 120.577 130.965 129.081 123.439 138C120.672 141.279 116.866 148.944 112.246 149.688C106.51 150.61 98.3457 141.056 93 139z"/>
<path style="fill:#e73638; stroke:none;" d="M242 81L242 100L290 100L290 140L339 140C344.583 140 353.829 138.249 358.829 141.028C366.445 145.259 371.278 157.797 375.6 165C379.048 170.746 388.38 181.003 385.987 188C379.593 206.697 347.295 208.845 340.858 189C337.624 179.028 351.07 166.258 354 157L301 161L301 162C313.66 171.386 316.991 182.92 325.649 194.985C329.844 200.83 336.068 205.188 340.497 211C349.66 223.023 354.807 239.009 356 254L434 254C431.841 249.298 430.755 239.588 435.434 235.757C443.129 229.456 453.432 235.691 455.06 244C455.745 247.494 454.764 250.616 454 254C459.526 252.816 458.823 235.977 454.889 232.417C450.619 228.553 446.75 233.087 442 232.889C429.919 232.386 428.489 220.946 433 212C416.851 203.137 436.112 180.931 447 198L448 198C447.293 194.586 446.754 188.978 442.867 187.658C437.5 185.836 431.855 192.534 426.015 191.731C413.85 190.059 418.326 175.669 426 172L426 171C415.008 172.941 407.458 159.203 419 154L419 153C408.029 154.386 398.879 149.708 404 137C398.872 138.866 392.478 144.672 387 144.598C381.323 144.521 375.07 136.478 371 133.08C359.253 123.274 347.065 113.815 334 105.811C304.563 87.7765 276.15 81 242 81z"/>
<path style="fill:#07a559; stroke:none;" d="M292 81L293 82L292 81M384 81L385 82L384 81M69 82L70 83L69 82M77 82L78 83L77 82M199 82L200 83L199 82M222 82L223 83L222 82M295 82L296 83L295 82M379 82L380 83L379 82M121 83L122 84L121 83M171 83L172 84L171 83M177 83L178 84L177 83M216 83L217 84L216 83M298 83L299 84L298 83M313 83L314 84L313 83M381 83L382 84L381 83M103 84L104 85L103 84M106 84L107 85L106 84M169 84L170 85L169 84M211 84L212 85L211 84M301 84L302 85L301 84M82 85L83 86L82 85M167 85L168 86L167 85M206 85L207 86L206 85M114 86L115 87L114 86M165 86L166 87L165 86M187 86L188 87L187 86M306 86L307 87L306 86M163 87L164 88L163 87M199 87L200 88L199 87M161 88L162 89L161 88M182 88L183 89L182 88M75 89L76 90L75 89M313 89L314 90L313 89M108 90L109 91L108 90M190 90L191 91L190 90M315 90L316 91L315 90M332 90L333 91L332 90M112 91L113 92L112 91M175 91L176 92L175 91M187 91L188 92L187 91M329 91L330 92L329 91M85 92L86 93L85 92M173 92L174 93L173 92M86 93L87 94L86 93M157 93L158 94L157 93M171 93L172 94L171 93M321 93L322 94L321 93M87 94L88 95L87 94M151 94L152 95L151 94M180 94L181 95L180 94M323 94L324 95L323 94M88 95L89 96L88 95M178 95L179 96L178 95M89 96L90 97L89 96M148 96L149 97L148 96M342 96L343 97L342 96M405 96L406 97L405 96M90 97L91 98L90 97M404 97L405 98L404 97M91 98L92 99L91 98M145 98L146 99L145 98M162 98L163 99L162 98M172 98L173 99L172 98M92 99L93 100L92 99M170 99L171 100L170 99M93 100L94 101L93 100M168 100L169 101L168 100z"/>
<path style="fill:#373535; stroke:none;" d="M203 100L203 140L153 140C147.247 140 137.301 138.105 132.185 141.028C125.777 144.689 122.084 156.777 118.576 163C112.531 173.722 102.121 185.915 113.105 196.895C123.796 207.582 151.329 204.444 153.76 187C154.997 178.123 143.979 164.853 139 158L186 161L186 162C173.743 168.358 170.213 180.753 162.363 190.91C155.282 200.071 145.522 204.89 140.323 216C135.209 226.93 135.708 237.355 134.91 249C133.107 275.333 134.9 299.381 145 324C150.1 322.309 149.574 316.678 150.156 312C151.627 300.186 156.773 290.208 160 279L161 279L167 322C172.412 320.209 171.717 313.839 172.898 309C175.202 299.563 178.9 287.884 186 281C186.042 296.137 191.34 310.205 197 324C202.422 321.821 200.944 316.01 201.004 311C201.113 301.835 203.718 292.401 207.284 284C208.736 280.578 210.527 274.716 215.012 274.395C227.974 273.467 227.558 301.35 226.83 309C224.681 331.589 219.546 350.942 193 353.826C180.453 355.19 161.506 347.635 152.514 360.019C142.079 374.39 171.701 392.295 174 370C183.668 375.161 189.451 385.393 200 390.135C210.074 394.663 222.495 392.488 231.775 396.603C235.827 398.4 236.766 404.787 240.105 407.721C249.22 415.733 257.691 404.698 259 396C274.19 395.348 289.307 392.927 302 383.957C308.561 379.321 313.057 371.91 320 368C314.923 385.72 342.84 379.743 340.772 364C339.822 356.774 333.346 354.077 327 352.808C314.307 350.269 301.527 353.574 289 349.134C265.98 340.975 264.523 313.282 266.09 292C266.594 285.156 275.157 267.221 283.046 278.137C291.138 289.335 294.144 310.796 291 324L295 325C300.424 311.775 306.7 297.519 307 283C312.284 289.048 312.971 301.204 312.971 309C312.971 313.742 310.371 319.13 316 321L326.645 295L333 278C333.475 289.064 336.864 299.87 336.996 311C337.052 315.709 335.725 321.249 341 323C357.012 292.562 362.58 251.623 346.73 220C341.42 209.405 332.24 203.299 325.649 193.996C317.444 182.415 314.848 169.07 301 162L301 161L354 157C349.837 165.917 337.909 178.694 340.559 189C345.475 208.124 375.71 206.709 384.517 191.996C390.336 182.275 380.523 172.205 375.6 164C371.469 157.115 366.907 145.165 359.711 141.028C354.631 138.108 344.721 140 339 140L290 140L290 100L203 100z"/>
<path style="fill:#07a559; stroke:none;" d="M94 101L95 102L94 101M141 101L142 102L141 101M145 101L146 102L145 101M202 101L202 140L203 140C203 128.828 206.311 111.274 202 101M351 102L352 103L351 102M163 103L164 104L163 103M92 104L93 105L92 104M141 104L142 105L141 104M340 104L341 105L340 104M354 104L355 105L354 104M84 105L85 106L84 105M160 105L161 106L160 105M207 105L208 106L207 105z"/>
<path style="fill:#f9f8f8; stroke:none;" d="M208.603 106.028C206.25 107.891 207.001 112.383 207 115L207 139C207 150.873 204.816 164.953 209.901 176C220.657 199.366 253.094 206.356 272.961 190.319C290.962 175.788 286 148.335 286 128C286 122.912 288.237 110.725 284.972 106.603C282.254 103.171 271.938 105 268 105L225 105C220.875 105 212 103.338 208.603 106.028z"/>
<path style="fill:#07a559; stroke:none;" d="M403 105L404 106L403 105M150 106L151 107L150 106M343 106L344 107L343 106M157 107L158 108L157 107M354 107L355 108L354 107M358 107L359 108L358 107M408 107L409 108L408 107M136 108L137 109L136 108z"/>
<path style="fill:#373535; stroke:none;" d="M209 108C209 128.75 203.245 159.516 213.88 178C227.376 201.458 266.876 203.249 279.623 178C283.919 169.49 283 160.234 283 151L283 108L209 108z"/>
<path style="fill:#07a559; stroke:none;" d="M283 108L284 109L283 108M346 108L347 109L346 108M146 109L147 110L146 109M154 109L155 110L154 109M80 110L81 111L80 110M87 110L88 111L87 110M90 110L91 111L90 110M130 110L131 111L130 110M129 111L130 112L129 111M419 111L420 112L419 111M150 112L151 113L150 112M353 113L354 114L353 113M366 113L367 114L366 113z"/>
<path style="fill:#faef13; stroke:none;" d="M446 113C441.791 127.611 426.717 140.734 438 156L439 156C447.504 144.935 455.654 125.971 446 113z"/>
<path style="fill:#07a559; stroke:none;" d="M76 115L77 116L76 115M83 115L84 116L83 115M86 115L87 116L86 115M412 115L413 116L412 115M445 115L446 116L445 115M145 116L146 117L145 116M357 116L358 117L357 116M366 116L367 117L366 116M412 117L413 118L412 117M75 119L76 120L75 119M361 119L362 120L361 119M425 119L426 120L425 119M371 120L372 121L371 120M423 120L424 121L423 120M78 121L79 122L78 121M246 121L247 122L246 121M376 121L377 122L376 121z"/>
<path style="fill:#f9f8f8; stroke:none;" d="M60 122C61.4213 129.329 62.2385 133.751 70 136L76 125L60 122z"/>
<path style="fill:#07a559; stroke:none;" d="M71 122L72 123L71 122M90 122L91 123L90 122M118 122L119 123L118 122z"/>
<path style="fill:#f9f8f8; stroke:none;" d="M246 122L241 138L223 138L235.454 150.093L232 166L246.576 157.557L261 166L257.353 150.09L270 138L252.702 136.397L246 122z"/>
<path style="fill:#07a559; stroke:none;" d="M403 122L404 123L403 122M449 122L450 123L449 122M117 123L118 124L117 123M137 123L138 124L137 123M366 123L367 124L366 123M401 123L402 124L401 123M406 123L407 124L406 123M74 124L75 125L74 124M93 124L94 125L93 124M136 124L137 125L136 124M99 125L100 126L99 125M135 125L136 126L135 125M377 125L378 126L377 125M440 125L441 126L440 125M76 126L77 127L76 126M85 126L86 127L85 126M134 126L135 127L134 126M412 126L413 127L412 126M102 127L103 128L102 127M133 127L134 128L133 127M132 128L133 129L132 128M61 129L62 130L61 129z"/>
<path style="fill:#faef13; stroke:none;" d="M78.5177 130.072C74.4795 132.322 66.411 144.378 66.0201 148.985C65.6525 153.318 72.9322 158.481 76.8156 156.263C80.9825 153.883 89.1749 141.883 89.723 137.093C90.2115 132.825 82.1502 128.048 78.5177 130.072z"/>
<path style="fill:#07a559; stroke:none;" d="M82 129L83 130L82 129M115 129L116 130L115 129M131 129L132 130L131 129M390 129L391 130L390 129M395 129L396 130L395 129M73 130L74 131L73 130M111 130L112 131L111 130M130 130L131 131L130 130M383 130L384 131L383 130z"/>
<path style="fill:#e73638; stroke:none;" d="M404 136L404 137L414.999 134.443L428 149L426 132C416.978 128.621 412.194 132.57 404 136z"/>
<path style="fill:#07a559; stroke:none;" d="M85 131L86 132L85 131M384 131L385 132L384 131M401 132L402 133L401 132M71 133L72 134L71 133M88 133L89 134L88 133M107 133L108 134L107 133M378 133L379 134L378 133M387 133L388 134L387 133M460 133L461 134L460 133M49 134L50 135L49 134z"/>
<path style="fill:#faef13; stroke:none;" d="M65 144L68 138C60.5674 134.511 50.1407 131.014 43.6373 138.34C37.2967 145.483 30.7002 168.79 46.9066 170.118C54.5778 170.746 48.1921 159.997 48.3218 157C48.7202 147.792 56.8999 143.15 65 144z"/>
<path style="fill:#07a559; stroke:none;" d="M59 134L60 135L59 134M120 134L121 135L120 134z"/>
<path style="fill:#faef13; stroke:none;" d="M460 134C453.591 148.855 440.335 158.681 448 176C460.219 169.809 468.393 145.78 460 134z"/>
<path style="fill:#07a559; stroke:none;" d="M62 135L63 136L62 135M90 135L91 136L90 135M414 135L415 136L414 135M459 135L460 136L459 135M461 135L462 136L461 135M45 136L46 137L45 136z"/>
<path style="fill:#f9f8f8; stroke:none;" d="M407 151C410.078 148.368 410.533 146.756 409 143C412.908 141.43 415.283 140.339 416 136C405.941 137.31 403.896 142.048 407 151z"/>
<path style="fill:#07a559; stroke:none;" d="M66 137L67 138L66 137M100 137L101 138L100 137M434 137L435 138L434 137M458 137L459 138L458 137M89 138L90 139L89 138M222 138L223 139L222 138M390 138L391 139L390 138M408 138L409 139L408 138M448 138L449 139L448 138M67 139L68 140L67 139M122 139L123 140L122 139M223 139L224 140L223 139M405 139L406 140L405 139M457 139L458 140L457 139M462 139L463 140L462 139M96 140L97 141L96 140M404 140L405 141L404 140M415 140L416 141L415 140M418 140L413 144L411 152C417.62 151.003 423.965 146.394 418 140M87 141L88 142L87 141M266 141L267 142L266 141M412 141L413 142L412 141M447 141L448 142L447 141M107 142L108 143L107 142M227 142L228 143L227 142M433.333 142.667L433.667 143.333L433.333 142.667M58 143L59 144L58 143M61 143L62 144L61 143M100 143L101 144L100 143M193 143L193 144L202 144L193 143M290 143L291 144L290 143z"/>
<path style="fill:#faef13; stroke:none;" d="M290 158C298.969 158 308.099 157.336 317 156.285C323.199 155.554 329.759 155.101 336 154.997C341.026 154.913 351.392 155.589 355.671 152.972C358.267 151.384 360.403 147.256 358.062 144.603C355.258 141.425 346.807 143 343 143L306 143C302.269 143 294.698 141.577 291.603 144.028C288.516 146.473 290 154.486 290 158z"/>
<path style="fill:#07a559; stroke:none;" d="M409 143L410 144L409 143M55 144L56 145L55 144M89 144L90 145L89 144M110 144L111 145L110 144M112 144L113 145L112 144M118 144L119 145L118 144z"/>
<path style="fill:#faef13; stroke:none;" d="M133 144C133.671 153.993 141.529 154.586 150 154.961C167.673 155.741 185.293 158 203 158L203 144L133 144z"/>
<path style="fill:#07a559; stroke:none;" d="M39 145L40 146L39 145M67 145L68 146L67 145M103 145L104 146L103 145M202 145L202 157L203 157L202 145M405 145L406 146L405 145M433.333 145.667L433.667 146.333L433.333 145.667M453 145L454 146L453 145M57 146L58 147L57 146z"/>
<path style="fill:#f9f8f8; stroke:none;" d="M52 163C59.8293 160.999 65.9491 163.548 71 170L73 170L78 161C70.7404 158.483 62.6341 154.405 62 146C53.1579 146.988 50.1301 155.05 52 163z"/>
<path style="fill:#07a559; stroke:none;" d="M62 146L63 147L62 146M132 146L133 147L132 146M38 147L39 148L38 147M234 147L235 148L234 147M51 148L52 149L51 148M65 148L66 149L65 148M115 148L116 149L115 148M451 148L452 149L451 148M86 149L85 151L86 149M443 149L444 150L443 149M50 150L51 151L50 150z"/>
<path style="fill:#faef13; stroke:none;" d="M67 182C85.6255 184.354 98.955 166.822 88 150C80.972 153.572 81.3836 160.852 77.6474 166.985C74.1916 172.657 68.9848 175.259 67 182z"/>
<path style="fill:#07a559; stroke:none;" d="M125 150L126 151L125 150z"/>
<path style="fill:#f9f8f8; stroke:none;" d="M131 150L131 182L151 182L131 150z"/>
<path style="fill:#07a559; stroke:none;" d="M236 150L237 151L236 150M363 150L363 155L364 155L365 150L363 150M406 150L407 151L406 150M408 150L409 151L408 150M36 151L37 152L36 151M65 151L66 152L65 151z"/>
<path style="fill:#f9f8f8; stroke:none;" d="M128 151L111 183C115.167 183 123.988 184.672 127.397 181.972C131.624 178.624 129.955 155.659 128 151z"/>
<path style="fill:#07a559; stroke:none;" d="M132 151L133 152L132 151M256 151L257 152L256 151M357 151L358 152L357 151z"/>
<path style="fill:#f9f8f8; stroke:none;" d="M360 151L344 183L362 182L360 151M364 151L364 182L383 182C378.715 172.055 371.781 158.544 364 151z"/>
<path style="fill:#e73638; stroke:none;" d="M427 151L430 154L427 151z"/>
<path style="fill:#07a559; stroke:none;" d="M66 152L67 153L66 152M92 152L93 153L92 152M124 152L125 153L124 152M423 152L424 153L423 152M435 152L436 153L435 152M462 152L463 153L462 152M83 153L84 154L83 153M136 153L137 154L136 153M235 153L236 154L235 153z"/>
<path style="fill:#f9f8f8; stroke:none;" d="M418 169L420 169L425 153C414.941 155.588 414.374 160.48 418 169z"/>
<path style="fill:#07a559; stroke:none;" d="M48 154L49 155L48 154M51 154L52 155L51 154M69 154L70 155L69 154M144.667 154.333L145.333 154.667L144.667 154.333M342.667 154.333L343.333 154.667L342.667 154.333M358 154L359 155L358 154M125 155L126 156L125 155M158.667 155.333L159.333 155.667L158.667 155.333M328.667 155.333L329.333 155.667L328.667 155.333M367 155L368 156L367 155M437 155L438 156L437 155M72 156L73 157L72 156M94 156L95 157L94 156M135 156L136 157L135 156M173.667 156.333L174.333 156.667L173.667 156.333M234 156L235 157L234 156M315 156L316 157L315 156M357 156L358 157L357 156M425 156L426 157L425 156M428 156L423 161L423 169C430.325 167.669 434.361 161.633 428 156M187.667 157.333L188.333 157.667L187.667 157.333M244 157L245 158L244 157M301 157L302 158L301 157M36 158L37 159L36 158M150.667 158.333L151.333 158.667L150.667 158.333M201 158L202 159L201 158M249 158L250 159L249 158z"/>
<path style="fill:#faef13; stroke:none;" d="M470 158C463.45 173.628 448.905 183.71 457 202C472.072 191.353 474.14 174.933 472 158L470 158z"/>
<path style="fill:#07a559; stroke:none;" d="M92 159L93 160L92 159M95 159L96 160L95 159M164 159L164 160L167 160L164 159M233 159L234 160L233 159M241 159L242 160L241 159M460 159L461 160L460 159M48 160L49 161L48 160M76.6667 160.333L77.3333 160.667L76.6667 160.333M179.667 160.333L180.333 160.667L179.667 160.333M370 160L371 161L370 160M80 161L81 162L80 161M119 161L120 162L119 161M138 161L139 162L138 161M145 315L146 315C147.492 303.256 150.446 291.617 155.759 281C156.61 279.301 160.318 270.618 163.267 272.921C165.289 274.501 163.954 280.691 164.17 283C165.054 292.449 165.608 301.756 168 311L169 311C170.451 301.139 174.521 291.517 179.604 283C180.781 281.028 184.172 273.884 187.411 275.921C189.833 277.445 189.202 283.511 189.59 286C191.032 295.243 193.903 303.937 196 313L197 313C197.244 301.158 200.919 288.713 205.866 278.004C208.226 272.894 213.051 268.276 218.985 271.322C237.478 280.812 231.332 319.174 226.941 335C222.932 349.453 200.992 358.991 187 357.826C178.638 357.13 163.93 353.907 157.148 360.279C148.251 368.638 164.016 384.46 169.505 373.891C170.996 371.019 170.541 367.15 171 364C187.311 370.782 203.445 375.153 221 369.653C228.573 367.28 239.523 357.742 247 357.917C251.434 358.021 256.043 362.209 260 363.961C267.784 367.406 276.45 369.894 285 369.996C295.214 370.118 305.2 369.008 315 365.975C319.49 364.585 323.659 361.691 327 366C323.86 367.929 320.011 374.459 326.11 375.588C333.569 376.969 340.774 366.356 335.482 360.394C329.57 353.731 316.878 356.037 309 355.999C296.05 355.937 281.438 352.438 272.105 342.907C261.203 331.775 258.683 295.828 264.905 282C265.837 279.928 267.016 277.893 268.529 276.188C282.145 260.852 290.602 284.226 292.986 295C294.326 301.055 294.999 306.805 295 313L296 313C301.239 301.181 304.445 286.915 305 274C315.836 277.391 316 300.673 316 310L317 310C323.046 297.071 328.09 282.181 330 268L334 268L340 314C347.368 309.132 348.732 293.154 350.08 285C353.971 261.464 353.748 236.763 340.301 216C335.327 208.32 326.784 203.427 322.086 195.91C313.983 182.948 308.686 162.971 290 162C289.894 200.462 243.14 216.598 216.09 191.7C210.715 186.753 206.422 179.931 204.105 173C203.186 170.251 203.784 165.89 201.972 163.603C200.395 161.613 196.289 161.582 194 161.843C179.014 163.554 172.938 182.896 165.363 192.96C158.922 201.516 149.394 205.909 144.273 216C137.884 228.59 138 242.257 138 256C138 276.578 138.58 295.27 145 315M445 161L446 162L445 161M472 161L473 162L472 161M49 162L50 163L49 162M237 162L238 163L237 162M420 162L421 163L420 162M58 163L59 164L58 163M76 163L77 164L76 163M118 163L119 164L118 163M142 163L143 164L142 163M256 163L257 164L256 163M39 164L40 165L39 164z"/>
<path style="fill:#faef13; stroke:none;" d="M56.3789 165.046C51.4805 167.875 40.2459 186.246 40.0826 191.907C39.9596 196.167 47.9646 200.831 51.6713 198.917C56.6321 196.356 68.0484 177.608 68.1829 172.015C68.2932 167.428 60.3703 162.742 56.3789 165.046z"/>
<path style="fill:#07a559; stroke:none;" d="M95 164L96 165L95 164M120 164L121 165L120 164M416 164L417 165L416 164M75 165L76 166L75 165M352 165L353 166L352 165M373 165L374 166L373 165z"/>
<path style="fill:#e73638; stroke:none;" d="M431 169C435.822 172.992 439.985 177.48 440 184L444 185C442.241 179.801 438.082 160.92 431 169z"/>
<path style="fill:#07a559; stroke:none;" d="M466 165L467 166L466 165M68 166L69 167L68 166M119 166L120 167L119 166M141 166L142 167L141 166M231 166L232 167L231 166M260 166L261 167L260 166M361 166L361 181L362 181L361 166M421 166L422 167L421 166M74 167L75 168L74 167M209 167L210 168L209 167M473 167L473 172L474 172L473 167M43 168L44 169L43 168M145 168L146 169L145 168M285 168L286 169L285 168M76 169L77 170L76 169M207 169L208 170L207 169M445 169L446 170L445 169z"/>
<path style="fill:#f9f8f8; stroke:none;" d="M33 170C36.5445 178.511 42.6142 184.915 47 173L33 170z"/>
<path style="fill:#07a559; stroke:none;" d="M114 170L115 171L114 170M210 170L211 171L210 170M376 170L377 171L376 170M43 171L44 172L43 171M74 171L75 172L74 171M144 171L145 172L144 171M430 171L431 172L430 171M88 172L89 173L88 172M113 172L114 173L113 172M208 172L209 173L208 172M284 172L285 173L284 172M428 172L429 173L428 172z"/>
<path style="fill:#f9f8f8; stroke:none;" d="M423 189L425 189L428 185L428 184L432 172C420.904 174.115 419.606 179.213 423 189z"/>
<path style="fill:#07a559; stroke:none;" d="M446 172L447 173L446 172M452 172L453 173L452 172M461 172L462 173L461 172M50 173L51 174L50 173M115 173L116 174L115 173M148 173L149 174L148 173M281 173L282 174L281 173M67 174L68 175L67 174M87 174L88 175L87 174M172 174L173 175L172 174M347 174L348 175L347 174M90 175L91 176L90 175M114 175L115 176L114 175M212 175L213 176L212 175M379 175L380 176L379 175M45 176L46 177L45 176M86 176L87 177L86 176M147 176L148 177L147 176M346 176L347 177L346 176M434 176L429 181L428 189C435.984 188.563 439.516 183.35 436 176L434 176M448 176L449 177L448 176M36 177L37 178L36 177M89 177L90 178L89 177M170 177L171 178L170 177M213 177L214 178L213 177M282 177L283 178L282 177M47 178L48 179L47 178M151 178L152 179L151 178M472 178L473 179L472 178M37 179L38 180L37 179M109 179L110 180L109 179M281 179L282 180L281 179M87 180L88 181L87 180M168 180L169 181L168 180M212 180L213 181L212 180M215 180L216 181L215 180M382 180L383 181L382 180z"/>
<path style="fill:#faef13; stroke:none;" d="M25 219L26.0748 196.015L41 184C16.1802 170.99 -0.778244 207.875 25 219z"/>
<path style="fill:#07a559; stroke:none;" d="M41.6667 181.333L42.3333 181.667L41.6667 181.333M86 181L87 182L86 181M108 181L109 182L108 181M70 182L71 183L70 182M128 182L129 183L128 182M132 182L132 183L151 183L132 182M343 182L344 183L343 182M359 182L360 183L359 182M364 182L364 183L383 183L364 182M426 182L427 183L426 182M65 183L66 184L65 183M214 183L215 184L214 183M421 183L422 184L421 183M18 184L19 185L18 184M64 184L65 185L64 184M68 184L69 185L68 184M81 184L82 185L81 184M215 184L216 185L215 184M470 184L471 185L470 184M17 185L18 186L17 185M75 185L76 186L75 185M154 185L155 186L154 185M277 185L278 186L277 185z"/>
<path style="fill:#faef13; stroke:none;" d="M485 185C474.822 198.321 456.971 205.354 462 225C474.801 219.405 491.41 200.276 485 185z"/>
<path style="fill:#07a559; stroke:none;" d="M110 186L110 187L122 187L110 186z"/>
<path style="fill:#faef13; stroke:none;" d="M110 187C115.469 205.412 147.398 205.883 151 186L110 187z"/>
<path style="fill:#07a559; stroke:none;" d="M151 186L152 187L151 186M342 187L342 188L354 187L342 187z"/>
<path style="fill:#faef13; stroke:none;" d="M343 187C347.146 207.549 378.75 203.676 384 186L343 187z"/>
<path style="fill:#07a559; stroke:none;" d="M59 187L60 188L59 187M107 187L108 188L107 187M425 187L426 188L425 187M483 187L484 188L483 187M383 188L384 189L383 188M37 189L38 190L37 189M150 189L151 190L150 189M220 189L221 190L220 189M224 189L225 190L224 189M61 190L62 191L61 190M108 190L109 191L108 190M272 190L273 191L272 190M382 190L383 191L382 190M467 190L468 191L467 190M14 191L15 192L14 191z"/>
<path style="fill:#f9f8f8; stroke:none;" d="M27 209C34.0372 207.698 42.414 207.826 46 215C51.7038 213.215 52.7513 207.431 53 202C46.4348 202.378 39.7857 197.834 37 192C28.2613 192.976 25.1858 201.102 27 209z"/>
<path style="fill:#07a559; stroke:none;" d="M56 192L57 193L56 192M109 192L110 193L109 192M151 192L152 193L151 192M224 192L225 193L224 192M439 192L440 193L439 192M478 192L479 193L478 192z"/>
<path style="fill:#faef13; stroke:none;" d="M59 193L53.9414 210.996L44 227C49.8612 227.414 56.0783 227.96 60.7755 223.606C69.0719 215.914 71.5698 197.478 59 193z"/>
<path style="fill:#07a559; stroke:none;" d="M61 193L62 194L61 193M160 193L161 194L160 193M437 193L438 194L437 193z"/>
<path style="fill:#f9f8f8; stroke:none;" d="M431 209L441 193C430.202 194.829 427.643 198.384 431 209z"/>
<path style="fill:#07a559; stroke:none;" d="M441.333 193.667L441.667 194.333L441.333 193.667M465 193L466 194L465 193M37 194L38 195L37 194M234 194L235 195L234 194M266 194L267 195L266 194M346 194L347 195L346 194M435 194L436 195L435 194M111 195L112 196L111 195M238 195L239 196L238 195M256 195L257 196L256 195M264 195L265 196L264 195M347 195L348 196L347 195M12 196L13 197L12 196M25 196L26 197L25 196M28 196L29 197L28 196M64 196L65 197L64 196M112 196L113 197L112 196M144 196L145 197L144 196M156 196L157 197L156 196M244 196L244 197L251 197L244 196M40 197L41 198L40 197M68 197L69 198L68 197M113 197L114 198L113 197M117 197L118 198L117 197M375 197L376 198L375 197M428.333 197.667L428.667 198.333L428.333 197.667M240 198L241 199L240 198M254 198L255 199L254 198M373 198L374 199L373 198M439 198L440 199L439 198M443 198L437 201L435 210C442.993 209.807 446.89 206.059 445 198L443 198M471 198L472 199L471 198M66 199L67 200L66 199M69 199L70 200L69 199M121 199L122 200L121 199M138 199L139 200L138 199z"/>
<path style="fill:#e73638; stroke:none;" d="M448.333 199.667L448.667 200.333L448.333 199.667z"/>
<path style="fill:#07a559; stroke:none;" d="M484 199L485 200L484 199M45 200L46 201L45 200M125 200L126 201L125 200M142 200L143 201L142 200M367 200L368 201L367 200M23 201L24 202L23 201M26 201L27 202L26 201M70 201L71 202L70 201M49 202L49 203L52 203L49 202M123 202L124 203L123 202M136 202L137 203L136 202M429 202L429 207L430 207L429 202M434 202L435 203L434 202z"/>
<path style="fill:#e73638; stroke:none;" d="M449 202L451 208L449 202z"/>
<path style="fill:#07a559; stroke:none;" d="M466 203L467 204L466 203M435 204L436 205L435 204M23 206L24 207L23 206M52 207L53 208L52 207M55 207L56 208L55 207M12 208L13 209L12 208M36 208L37 209L36 208M430 208L431 209L430 208M40 209L41 210L40 209z"/>
<path style="fill:#e73638; stroke:none;" d="M446 209L446 210L456 230C454.575 222.651 454.734 210.816 446 209z"/>
<path style="fill:#07a559; stroke:none;" d="M462 209L463 210L462 209M30 210L31 211L30 210z"/>
<path style="fill:#faef13; stroke:none;" d="M31.3032 210.832C27.7385 212.269 27.6376 218.812 27 222C25.4704 229.649 17.7135 252.216 34.7716 246.968C38.4594 245.834 38.5753 240.121 39.1998 237C40.5833 230.087 48.7967 203.781 31.3032 210.832z"/>
<path style="fill:#07a559; stroke:none;" d="M143 210L144 211L143 210M53 212L54 213L53 212M444 212L445 213L444 212z"/>
<path style="fill:#f9f8f8; stroke:none;" d="M433 228C437.672 226.852 439.266 224.71 438 220C443.277 218.721 447.594 218.539 446 212C434.663 215.594 433 215.443 433 228z"/>
<path style="fill:#07a559; stroke:none;" d="M69 213L70 214L69 213M489 213L490 214L489 213M52 214L53 215L52 214z"/>
<path style="fill:#faef13; stroke:none;" d="M489 214C475.923 226.969 464.013 233.03 464 253C476.558 247.582 495.565 229.68 489 214z"/>
<path style="fill:#07a559; stroke:none;" d="M18 215L19 216L18 215M46.6667 215.333L47.3333 215.667L46.6667 215.333M43 216L44 217L43 216M460 216L461 217L460 216M446 217L447 218L446 217M67 218L68 219L67 218M449 218L441 221L438 230C445.179 229.995 455.183 227.066 449 218M27 219L28 220L27 219M138 220L139 221L138 220M438 220L439 221L438 220M469 220L470 221L469 220M489 222L490 223L489 222M137 223L138 224L137 223M461 223L462 224L461 223M26 224L27 225L26 224M44 224L45 225L44 224M64 224L65 225L64 224M439 224L440 225L439 224M477 224L478 225L477 224M58 225L59 226L58 225M63 225L64 226L63 225M56 226L57 227L56 226M47.6667 227.333L48.3333 227.667L47.6667 227.333M51.6667 227.333L52.3333 227.667L51.6667 227.333M25 229L26 230L25 229M43 229L44 230L43 229M45 229L46 230L45 229M40 230L41 231L40 230M135.333 231.667L135.667 232.333L135.333 231.667M19.6667 233.333L20.3333 233.667L19.6667 233.333M43 233L44 234L43 233z"/>
<path style="fill:#faef13; stroke:none;" d="M22 272L16.1343 255.999L22 234C-2.60132 234.206 -2.34198 270.009 22 272z"/>
<path style="fill:#07a559; stroke:none;" d="M39 235L40 236L39 235M484 235L485 236L484 235M10 236L11 237L10 236z"/>
<path style="fill:#faef13; stroke:none;" d="M42 236L47.8519 253L42 274C66.2086 273.784 65.9601 238.092 42 236z"/>
<path style="fill:#07a559; stroke:none;" d="M46 236L47 237L46 236M438 236L439 237L438 236M445 236L446 237L445 236z"/>
<path style="fill:#f9f8f8; stroke:none;" d="M434 251C438.582 249.623 440.829 247.974 440 243C445.041 241.796 448.769 242.258 451 237C438.512 233.845 434.492 239.543 434 251z"/>
<path style="fill:#07a559; stroke:none;" d="M49 237L50 238L49 237M450 238L451 239L450 238M482 238L483 239L482 238M57 239L58 240L57 239M38 240L39 241L38 240M464 240L464 244L465 244L464 240M59 241L60 242L59 241M446 242L446 243L449 243L446 242M451 242L443 245C442.88 248.962 441.482 250.251 438 252L438 253C448.287 255.862 452.992 252.653 453 242L451 242M42 243L43 244L42 243M440.333 243.667L440.667 244.333L440.333 243.667z"/>
<path style="fill:#faef13; stroke:none;" d="M493 244C480.424 256 463.864 259.923 463 280C475.856 276.946 499.251 260.022 493 244z"/>
<path style="fill:#07a559; stroke:none;" d="M24 245L25 246L24 245z"/>
<path style="fill:#f9f8f8; stroke:none;" d="M40 245C35.7464 253.105 26.662 248.216 20 246C16.562 260.441 21.8368 261.345 34 261.274C36.6734 261.258 40.109 263.121 42.4861 261.292C48.0801 256.989 44.2357 248.227 40 245z"/>
<path style="fill:#07a559; stroke:none;" d="M434 245L435 246L434 245M4 246L5 247L4 246M28 246L29 247L28 246M42 246L43 247L42 246M33 247L34 248L33 247M35 247L36 248L35 247M39 247L40 248L39 247M43 247L44 248L43 247M473 247L474 248L473 247M26 248L27 249L26 248M38 248L39 249L38 248M440 248L441 249L440 248M488 248L489 249L488 248M31 249L32 250L31 249M134 249L134 253L135 253L134 249M438 249L439 250L438 249M470 249L471 250L470 249M493 249L494 250L493 249M63.3333 250.667L63.6667 251.333L63.3333 250.667M436 250L437 251L436 250M485 250L486 251L485 250M480 253L481 254L480 253M492 253L493 254L492 253M18 254L18 258L19 258L18 254z"/>
<path style="fill:#f9f8f8; stroke:none;" d="M356 254C356 271.674 354.527 290.311 348.186 307C345.93 312.937 343.588 321.049 337 323C337 308.262 336.775 292.104 332 278L331 278C329.528 288.925 324.889 299.915 320.573 310C318.632 314.535 316.971 319.446 312 321C312.001 309.17 314.498 293.639 308 283C306.251 288.53 305.386 294.382 303.848 300C302.832 303.712 301.561 307.354 300.333 311C299.557 313.301 296.794 324.201 293.275 323.369C290.719 322.764 292.009 315.835 291.995 314C291.92 303.937 289.76 293.392 286.186 284C283.377 276.62 277.045 271.008 270.419 279.059C264.555 286.184 266.34 295.664 266.91 304C267.663 314.991 265.925 330.751 273.419 339.907C282.911 351.503 300.431 352 314 352C322.363 352 332.886 351.7 338.566 359.044C349.141 372.714 319.545 390.533 319 368C312.767 372.483 308.291 378.919 302 383.511C289.599 392.563 274.146 395.958 259 396C256.908 407.592 249.416 411.69 239 408C239 412.941 236.864 424.402 240.028 428.397C244.073 433.504 263.255 429.46 269 428.925C290.973 426.881 312.678 419.142 332 408.691C340.913 403.87 348.931 396.776 358 392.434C364.211 389.461 367.522 397.865 372.829 395.824C378.952 393.469 384.805 382.117 388.626 377C393.551 370.404 402.28 361.11 404.193 353C406.043 345.159 401.235 334.524 411.055 328.836C415.123 326.479 421.474 329.894 426 330L426 329C418.617 323.943 413.607 310.315 425.055 305.121C428.553 303.534 434.181 305.919 438 306L438 305C428.533 302.731 420.655 290.728 430.318 282.603C433.447 279.973 439.2 281 443 281L443 280C427.173 277.177 427.421 255.963 444 258C436.142 252.37 425.151 254 416 254L356 254M455 254L457 256L457 254L455 254z"/>
<path style="fill:#07a559; stroke:none;" d="M457.333 254.667L457.667 255.333L457.333 254.667M3.33333 255.667L3.66667 256.333L3.33333 255.667M438 255L439 256L438 255z"/>
<path style="fill:#f9f8f8; stroke:none;" d="M449 257L456 280C457.202 274.952 459.675 251.389 449 257z"/>
<path style="fill:#07a559; stroke:none;" d="M452 255L453 256L452 255z"/>
<path style="fill:#e73638; stroke:none;" d="M63 256C62.011 268.427 55.4221 275.319 43 277L43 278C66.2614 278.015 77.5339 303.107 58 318L58 319C71.1553 319.036 87.4612 330.477 83.1852 346C81.7516 351.204 74.5247 355.249 74.1134 360.09C73.7111 364.824 80.3997 371.369 83 375L84 375C84 371.396 81.9109 352.494 86.2137 351.631C89.7343 350.925 94.7059 361.559 96.3333 364C103.889 375.334 113.509 394.044 125.285 401.338C132.134 405.579 135.279 390.421 143 393.336C155.405 398.021 166.729 408.057 179 413.691C198.956 422.853 218.708 426.047 240 430C237.479 419.411 242.286 406.402 233.926 397.603C230.247 393.731 214.663 394.714 209 393.09C201.331 390.892 194.005 387.092 188 381.816C183.546 377.902 179.752 371.848 174 370C169.981 392.184 142.741 372.874 153.279 360.019C160.952 350.658 172.567 353.504 183 353.961C196.604 354.556 211.802 351.186 220.721 339.999C228.91 329.729 229.305 300.316 226.076 288C224.766 283.007 221.082 272.266 214.043 273.956C209.863 274.96 208.29 280.534 206.861 284C203.789 291.454 201.394 299.912 201.039 308C200.783 313.855 202.664 320.525 197 324C192.863 309.527 186.128 296.486 186 281C178.416 285.868 174.938 299.645 172.898 308C171.623 313.225 172.166 319.16 167 322L161 279L160 279C155.891 288.883 152.15 298.348 150.438 309C149.561 314.459 150.378 321.037 145 324C138.271 300.462 134 280.779 134 256L63 256z"/>
<path style="fill:#faef13; stroke:none;" d="M64.6667 256.333L65.3333 256.667L64.6667 256.333z"/>
<path style="fill:#07a559; stroke:none;" d="M448 256L449 257L448 256M47 257L48 258L47 257M435 257L436 258L435 257M440 257L441 258L440 257M444 257L445 258L444 257M474 257L475 258L474 257M3 258L4 259L3 258M44 258L45 259L44 258M59 258L60 259L59 258M451 258L452 259L451 258M490 258L491 259L490 258M19 259L20 260L19 259M437.667 259.333L438.333 259.667L437.667 259.333M446 259L447 260L446 259z"/>
<path style="fill:#f9f8f8; stroke:none;" d="M433 274L440 272L441 265C446.221 266.185 450.125 265.038 449 259C437.092 261.211 433.586 260.348 433 274z"/>
<path style="fill:#07a559; stroke:none;" d="M31.6667 261.333L32.3333 261.667L31.6667 261.333M43 261L44 262L43 261M434 261L435 262L434 261M450 261L451 262L450 261M18 262L19 263L18 262M22 262L23 263L22 262M42 262L43 263L42 262M35.6667 263.333L36.3333 263.667L35.6667 263.333M449 263L450 264L449 263M487 263L488 264L487 263M26 264L27 265L26 264z"/>
<path style="fill:#faef13; stroke:none;" d="M27.1481 264.742C22.7266 266.746 24.7567 272.263 24.9645 276C25.4589 284.89 24.1171 305.911 38.8519 299.397C43.3533 297.407 41.386 291.74 41.0856 288C40.3911 279.352 41.9122 258.051 27.1481 264.742z"/>
<path style="fill:#07a559; stroke:none;" d="M442 265L443 266L442 265M448 265L449 266L448 265M451 265L442 268L437 276C445.323 279.512 455.898 275.451 451 265M431 267L432 268L431 267M10 268L11 269L10 268M21.3333 268.667L21.6667 269.333L21.3333 268.667M355 268L355 271L356 271L355 268M433 268L434 269L433 268M54 270L55 271L54 270M430 270L431 271L430 270M17 271L18 272L17 271M24.3333 271.667L24.6667 272.333L24.3333 271.667M39 271L40 272L39 271M437 272L438 273L437 272M430 273L431 274L430 273M454 273L455 274L454 273M43 274L44 275L43 274M278 274L279 275L278 274M463 274L464 275L463 274M272 276L273 277L272 276M472 276L473 277L472 276z"/>
<path style="fill:#faef13; stroke:none;" d="M495 276C481.671 285.11 460.789 284.67 459 305C470.714 302.793 499.735 293.081 495 276z"/>
<path style="fill:#07a559; stroke:none;" d="M271 277L272 278L271 277M470 277L471 278L470 277M493 277L494 278L493 277M270 278L271 279L270 278M332 278L333 279L332 278M456.333 278.667L456.667 279.333L456.333 278.667M491 278L492 279L491 278M354 279L355 280L354 279M439 279L440 280L439 279z"/>
<path style="fill:#f9f8f8; stroke:none;" d="M447 280C452.236 289.164 449.811 294.582 451 304C455.628 297.504 459.496 278.849 447 280z"/>
<path style="fill:#07a559; stroke:none;" d="M465 279L466 280L465 279z"/>
<path style="fill:#faef13; stroke:none;" d="M48 311C50.2435 320.222 58.3762 317.769 63.0054 310.907C67.6996 303.948 65.164 289.827 58.8912 284.394C56.3646 282.206 46.8189 277.678 44.1181 281.607C41.2429 285.79 47.4671 289.688 49.5748 292.209C54.4904 298.088 53.829 306.379 48 311z"/>
<path style="fill:#07a559; stroke:none;" d="M49 280L50 281L49 280M446 280L447 281L446 280M452 280L453 281L452 280M486 280L487 281L486 280M40 281L41 282L40 281M330 281L331 282L330 281M430 281L431 282L430 281M439 281L440 282L439 281M453 281L454 282L453 281M494 281L495 282L494 281M25 282L26 283L25 282M285 282L286 283L285 282M307 283L308 284L307 283M333 283L334 284L333 283M428 283L429 284L428 283z"/>
<path style="fill:#f9f8f8; stroke:none;" d="M429 299C434.711 297.283 435.634 294.452 437 289C439.599 289.767 451.828 288.407 445.577 284.066C434.851 276.618 427.07 289.736 429 299z"/>
<path style="fill:#07a559; stroke:none;" d="M441 283L442 284L441 283M446 283L447 284L446 283M449 283L450 284L449 283M43 284L44 285L43 284M267 284L268 285L267 284M447 284L448 285L447 284M475 284L476 285L475 284z"/>
<path style="fill:#faef13; stroke:none;" d="M30 323L20.9823 303L23 285C8.34978 288.52 2.55321 307.703 14.2245 318.606C18.5576 322.654 24.417 322.985 30 323z"/>
<path style="fill:#07a559; stroke:none;" d="M329 285L330 286L329 285M492 285L493 286L492 285M353 286L354 287L353 286M455 286L456 287L455 286M469 287L470 288L469 287M44 288L45 289L44 288M266 288L267 289L266 288M328 288L329 289L328 288M13 289L14 290L13 289M23 289L24 290L23 289M306 289L307 290L306 289M334 289L335 290L334 289M437 289L438 290L437 289M448 289C445.616 292.849 443.221 292.485 439 292L433 300L433 301C441.937 305.301 454.635 300.079 448 289M451 289L452 290L451 289M427 290L428 291L427 290M444 290L445 291L444 290M11 291L12 292L11 291M41 291L42 292L41 291z"/>
<path style="fill:#f9f8f8; stroke:none;" d="M44 291C45.2364 303.097 31.2194 306.761 24 298L23 298L28 312L29 312C33.9831 308.594 40.8228 304.215 46 309C53.1053 305.082 50.0174 294.502 44 291z"/>
<path style="fill:#07a559; stroke:none;" d="M45 291L46 292L45 291M288 291L289 292L288 291M352 291L353 292L352 291M26 292L27 293L26 292M50 292L51 293L50 292M63 292L64 293L63 292M454 292L455 293L454 292M23 293L24 294L23 293M426 293L427 294L426 293M22 294L23 295L22 294M44.3333 294.667L44.6667 295.333L44.3333 294.667M48 294L49 295L48 294M311.333 294.667L311.667 295.333L311.333 294.667M436.333 294.667L436.667 295.333L436.333 294.667M462 294L463 295L462 294M335 295L336 296L335 295M483 295L484 296L483 295M435 296L436 297L435 296M49 297L50 298L49 297M24 298L25 299L24 298M52 298L53 299L52 298M453 298L454 299L453 298M290 299L291 300L290 299M477 299L478 300L477 299M29 300L30 301L29 300M31 300L32 301L31 300M266 300L266 303L267 303L266 300M324 300L325 301L324 300M427 300L428 301L427 300M475 300L476 301L475 300M20 301L21 302L20 301M41 301L42 302L41 301M65 301L66 302L65 301M303 301L304 302L303 301M23 302L24 303L23 302M27 302L28 303L27 302M34.6667 302.333L35.3333 302.667L34.6667 302.333M50 302L50 305L51 305L50 302M430 302L431 303L430 302M452 302L453 303L452 302M470 302L471 303L470 302M312 303L312 307L313 307L312 303M349 303L350 304L349 303M432 303L433 304L432 303M450 303L451 304L450 303M336.333 304.667L336.667 305.333L336.333 304.667M424 304L425 305L424 304M428 304L429 305L428 304z"/>
<path style="fill:#f9f8f8; stroke:none;" d="M441 306L444 324C449.629 317.032 454.632 303.044 441 306z"/>
<path style="fill:#07a559; stroke:none;" d="M461 304L462 305L461 304M65 305L66 306L65 305M431 305L432 306L431 305M438 305L439 306L438 305M443 305L444 306L443 305z"/>
<path style="fill:#faef13; stroke:none;" d="M450 329C467.413 328.952 483.947 321.824 491 305C475.272 309.205 455.286 310.693 450 329z"/>
<path style="fill:#07a559; stroke:none;" d="M24 306L25 307L24 306M39 306L40 307L39 306M291.333 306.667L291.667 307.333L291.333 306.667M348 306L349 307L348 306M426 306L427 307L426 306M440 306L441 307L440 306M486 306L487 307L486 306M490 306L491 307L490 306M9 307L10 308L9 307M45 307L46 308L45 307z"/>
<path style="fill:#f9f8f8; stroke:none;" d="M420 322C425.983 321.17 425.857 317.374 430.313 315.327C435.638 312.881 439.37 316.979 441 309C428.344 305.985 420.759 307.367 420 322z"/>
<path style="fill:#07a559; stroke:none;" d="M430 307L431 308L430 307M41 308L42 309L41 308M51 308L52 309L51 308M64 308L65 309L64 308M423 308L424 309L423 308M489 308L490 309L489 308M22 309L23 310L22 309M32 309L33 310L32 309M38 309L39 310L38 309z"/>
<path style="fill:#faef13; stroke:none;" d="M38.9846 309.549C24.3293 312.391 35.0859 327.588 38.7191 336C40.299 339.658 41.9258 345.856 47.0154 345.218C62.4593 343.281 51.2856 325.962 47.6944 318C45.8326 313.872 44.536 308.472 38.9846 309.549z"/>
<path style="fill:#07a559; stroke:none;" d="M26 310L27 311L26 310M30 310L31 311L30 310M49 310L50 311L49 310M312 310L312 315L313 315L312 310M320 310L321 311L320 310M420 310L421 311L420 310M443 310L444 311L443 310M346 311L347 312L346 311M466 311L467 312L466 311M422 312L423 313L422 312M440 312L441 313L440 312M45 313L46 314L45 313M48 313L49 314L48 313M299 313L300 314L299 313M27.3333 314.667L27.6667 315.333L27.3333 314.667M59 314L60 315L59 314M428 315L429 316L428 315M435 315L436 316L435 315M441 315L439 319L431 317C429.497 321.279 427.233 322.661 423 324L423 325C431.337 329.26 446.718 328.658 441 315M448 315L449 316L448 315M484 315L485 316L484 315M30 316L31 317L30 316M298 316L299 317L298 316M267.333 317.667L267.667 318.333L267.333 317.667M447 317L448 318L447 317M28 318L29 319L28 318M481 318L482 319L481 318z"/>
<path style="fill:#e73638; stroke:none;" d="M56.6667 319.333L57.3333 319.667L56.6667 319.333z"/>
<path style="fill:#07a559; stroke:none;" d="M419.333 319.667L419.667 320.333L419.333 319.667M312 320L313 321L312 320M427 320L428 321L427 320M61.6667 321.333L62.3333 321.667L61.6667 321.333M291.333 321.667L291.667 322.333L291.333 321.667M341 321L342 322L341 321M423 321L424 322L423 321M55 322L56 323L55 322z"/>
<path style="fill:#faef13; stroke:none;" d="M53 323L55 330C70.4213 332.793 64.8974 346.793 70 357C84.1274 353.023 81.8151 333.635 72.7863 325.394C67.491 320.561 59.4342 321.805 53 323z"/>
<path style="fill:#07a559; stroke:none;" d="M337 322L338 323L337 322M33 323L34 324L33 323M295 323L296 324L295 323M292 324L293 325L292 324M443 324L444 325L443 324M472 324L473 325L472 324M420 325L421 326L420 325z"/>
<path style="fill:#f9f8f8; stroke:none;" d="M443 325L444 326L443 325z"/>
<path style="fill:#07a559; stroke:none;" d="M268 326L269 327L268 326z"/>
<path style="fill:#f9f8f8; stroke:none;" d="M442 326L440 330L442 326z"/>
<path style="fill:#07a559; stroke:none;" d="M467 326L468 327L467 326M54 327L55 328L54 327M412 327L412 328L415 328L412 327M441 327L442 328L441 327M417 328L418 329L417 328M440 328L441 329L440 328M458 328L459 329L458 328M426 329L427 330L426 329M36 330L37 331L36 330M58 330L59 331L58 330M269 330L270 331L269 330z"/>
<path style="fill:#f9f8f8; stroke:none;" d="M405 347C412.628 346.667 411.67 343.96 416.429 339.951C419.536 337.334 424.002 342.416 427.522 338.672C433.407 332.414 416.765 329.774 413.109 330.422C408.028 331.323 405.288 342.667 405 347z"/>
<path style="fill:#07a559; stroke:none;" d="M416 330L417 331L416 330M437 330L438 331L437 330z"/>
<path style="fill:#faef13; stroke:none;" d="M33 331C13.4517 345.937 28.087 371.928 51 366L37.8248 351.985L33 331z"/>
<path style="fill:#07a559; stroke:none;" d="M418 331L419 332L418 331z"/>
<path style="fill:#f9f8f8; stroke:none;" d="M430 331C432.721 336.832 433.502 341.691 432 348L433 348L440 332L430 331z"/>
<path style="fill:#07a559; stroke:none;" d="M34 332L35 333L34 332M409 332L410 333L409 332M426 332L427 333L426 332z"/>
<path style="fill:#faef13; stroke:none;" d="M440 352C457.683 352 473.401 348.607 483 332C466.559 334.214 447.291 334.607 440 352z"/>
<path style="fill:#f9f8f8; stroke:none;" d="M57 333C60.5686 344.384 46.7372 352.383 39 343L38 343C38.6013 348.871 40.796 354.68 47 356C51.3089 350.026 57.5919 345.039 65 348C65.9661 341.569 63.3362 335.22 57 333z"/>
<path style="fill:#07a559; stroke:none;" d="M59 333L60 334L59 333M77 333L78 334L77 333M57 334L58 335L57 334M270 334L271 335L270 334M406 334L407 335L406 334M429 334L430 335L429 334M439 334L440 335L439 334M468 334L469 335L468 334M460 335L461 336L460 335M408 336L409 337L408 336M429 336L430 337L429 336M432 336L432 340L433 340L432 336M438 336L439 337L438 336M456 336L457 337L456 336M405 337L406 338L405 337M453 337L454 338L453 337M63 338L64 339L63 338M66 338L67 339L66 338M79 338L80 339L79 338M417 338L418 339L417 338M437 338L438 339L437 338M56 339L57 340L56 339M415 339L416 340L415 339M449 339L450 340L449 339M477 339L478 340L477 339M406 340L407 341L406 340M422 340L423 341L422 340M429 340C425.489 343.986 422.56 342.74 418 341C415.954 346.451 413.828 348.194 408 349L408 350C416.966 355.907 435.596 355.725 429 340M476 340L477 341L476 340M55 341L56 342L55 341M58 341L59 342L58 341M80 341L81 342L80 341M475 341L476 342L475 341M38 342L39 343L38 342M474 342L475 343L474 342M51 343L52 344L51 343M65 343L66 344L65 343M402 343L403 344L402 343M43 345L44 346L43 345M80 345L81 346L80 345M414 345L415 346L414 345M470 345L471 346L470 345M50 346L51 347L50 346M62 346L63 347L62 346M65 346L66 347L65 346M282 346L283 347L282 346M410 346L411 347L410 346M432 346L433 347L432 346M284 347L285 348L284 347M59 348L60 349L59 348z"/>
<path style="fill:#faef13; stroke:none;" d="M83 384C82.6835 373.34 63.4466 339.674 51.4776 353.529C47.9819 357.576 52.7128 362.567 55 366C62.9758 377.972 69.0027 381.286 83 384z"/>
<path style="fill:#07a559; stroke:none;" d="M67 348L68 349L67 348M79 348L80 349L79 348M432 348L433 349L432 348M36 349L37 350L36 349M57 349L58 350L57 349M289 349L290 350L289 349M404 349L405 350L404 349M462 349L463 350L462 349M51 350L52 351L51 350M66 350L67 351L66 350M78 350L79 351L78 350M405.333 350.667L405.667 351.333L405.333 350.667M459 350L460 351L459 350M40 351L41 352L40 351M298 351L299 352L298 351M455 351L456 352L455 351M325 352L326 353L325 352M41 353L42 354L41 353M65 353L66 354L65 353M330 353L331 354L330 353M333 354L334 355L333 354M410 354L411 355L410 354z"/>
<path style="fill:#f9f8f8; stroke:none;" d="M429 354L428 357L429 357L429 354z"/>
<path style="fill:#07a559; stroke:none;" d="M39 355L40 356L39 355M49 355L50 356L49 355M335 355L336 356L335 355z"/>
<path style="fill:#f9f8f8; stroke:none;" d="M410 355L410 381C413.128 378.266 428.721 362.729 425.252 358.692C423.384 356.517 413.151 355.842 410 355z"/>
<path style="fill:#07a559; stroke:none;" d="M412 355L413 356L412 355M26 356L27 357L26 356M40 356L41 357L40 356M67 356L68 357L67 356M414 356L415 357L414 356M418 357L419 358L418 357M422 357L423 358L422 357M425 357L426 358L425 357z"/>
<path style="fill:#faef13; stroke:none;" d="M428 373C443.908 375.953 463.825 372.749 472 357C457.248 359.739 434.145 354.925 428 373z"/>
<path style="fill:#07a559; stroke:none;" d="M44 358L45 359L44 358M452 358L452 359L460 359L452 358M471 358L472 359L471 358z"/>
<path style="fill:#f9f8f8; stroke:none;" d="M88 359C88.7016 365.466 92.8027 370.704 96.3333 376C103.761 387.141 111.975 401.169 123 409C123.352 402.916 117.612 398.49 114.001 394C105.047 382.87 97.8039 369.237 88 359z"/>
<path style="fill:#07a559; stroke:none;" d="M339 359L340 360L339 359M400 359L401 360L400 359z"/>
<path style="fill:#f9f8f8; stroke:none;" d="M405 359L375 401C384.95 401.149 396.007 378.748 400.808 371C403.098 367.305 406.526 363.45 405 359z"/>
<path style="fill:#07a559; stroke:none;" d="M404 360L405 361L404 360M440 360L441 361L440 360M340 361L341 362L340 361M245.014 362.797C232.856 366.649 234.267 388.811 237.224 398C238.804 402.909 242.815 409.53 248.985 407.381C260.573 403.346 259.177 380.887 255.907 372C254.312 367.666 250.695 360.997 245.014 362.797M398 362L399 363L398 362M436 362L437 363L436 362M424 363L425 364L424 363M51.3333 364.667L51.6667 365.333L51.3333 364.667M396 365L397 366L396 365M55 366L56 367L55 366M74 366L75 367L74 366M90 366L91 367L90 366z"/>
<path style="fill:#373535; stroke:none;" d="M246.001 367.086C235.683 368.97 236.91 388.891 239.225 396C240.329 399.393 242.756 403.949 247 403.534C257.968 402.461 256.315 381.968 254.215 375C253.134 371.416 250.593 366.248 246.001 367.086z"/>
<path style="fill:#07a559; stroke:none;" d="M256.667 366.333L257.333 366.667L256.667 366.333M403 366L404 367L403 366M463 366L464 367L463 366M39 367L40 368L39 367M44 367L45 368L44 367z"/>
<path style="fill:#e73638; stroke:none;" d="M235 367L225 373C229.434 373.948 236.185 372.892 235 367z"/>
<path style="fill:#f9f8f8; stroke:none;" d="M257 367C259.208 372.775 264.525 372.903 270 372L270 371L257 367z"/>
<path style="fill:#07a559; stroke:none;" d="M259 367L260 368L259 367M319 368L320 369L319 368M394 368L395 369L394 368M420 368L421 369L420 368M57 369L58 370L57 369z"/>
<path style="fill:#f9f8f8; stroke:none;" d="M245.221 370.176C238.193 373.143 239.718 388.394 241.255 394C242.005 396.736 244.07 401.625 247.791 400.503C255.087 398.303 253.668 381.33 252.057 376.001C251.224 373.244 248.868 368.636 245.221 370.176z"/>
<path style="fill:#07a559; stroke:none;" d="M248 369L249 370L248 369M264 369L265 370L264 369M316 369L317 370L316 369M340 369L341 370L340 369M401 369L402 370L401 369M249 370L250 371L249 370M267 370L268 371L267 370M311 370C293.684 377.355 280.287 384 261 384L260 393C274.805 393 288.624 390.702 301 381.957C304.773 379.29 311.105 374.957 311 370M428 370L429 371L428 370M88 371L90 373L88 371M454 371L455 372L454 371M59 372L60 373L59 372z"/>
<path style="fill:#f9f8f8; stroke:none;" d="M88 372C88.2009 376.678 90.9115 384.501 87.4861 388.476C83.8628 392.681 69.8662 386.655 65 386C68.3629 395.185 75.2621 403.282 81.1304 411C97.6951 432.786 120.027 452.653 144 466L150 454C139.038 447.29 116.782 437.697 110.752 425.91C107.642 419.832 119.076 416.971 117.658 411C116.665 406.816 111.246 402.312 108.6 399C101.826 390.52 96.326 378.881 88 372z"/>
<path style="fill:#07a559; stroke:none;" d="M182 372C190.096 389.313 216.009 394 233 394L231.397 385.117L213 383.714L182 372M263 372L264 373L263 372M267 372L268 373L267 372M260 374L260 379L278 374L260 374M396 372L397 373L396 372z"/>
<path style="fill:#f9f8f8; stroke:none;" d="M404 372L381 406C385.299 408.94 397.364 416.103 397.364 421.914C397.364 426.422 389.201 430.477 386 432.656C373.025 441.489 359.528 449.097 346 457L350 466C379.615 449.513 416.662 418.599 429 386C418.014 387.479 404.309 395.758 405.039 379.002C405.143 376.626 405.567 374.332 406 372L404 372z"/>
<path style="fill:#07a559; stroke:none;" d="M427 372L428 373L427 372M451 372L452 373L451 372M216 374C220.422 379.063 230.748 382.64 234 375L216 374M282.667 373.333L283.333 373.667L282.667 373.333M293 373L293 374L296 374L293 373M416 373L417 374L416 373M430 373L431 374L430 373M447 373L448 374L447 373M95 374L96 375L95 374M280 374L279 376L280 374z"/>
<path style="fill:#f9f8f8; stroke:none;" d="M267 381L267 382C277.321 381.915 285.721 379.197 295 375C284.918 370.77 276.264 378.313 267 381z"/>
<path style="fill:#07a559; stroke:none;" d="M312 374L313 375L312 374M337 374L338 375L337 374M405 374L405 385L406 385L405 374M61 375L62 376L61 375M91 375L92 376L91 375M99 375L100 376L99 375z"/>
<path style="fill:#e73638; stroke:none;" d="M200 376L200 377L226 382C217.054 377.13 209.986 375.999 200 376z"/>
<path style="fill:#07a559; stroke:none;" d="M241 375L242 376L241 375M311 375L312 376L311 375M336 375L337 376L336 375M389 375L390 376L389 375M394 375L395 376L394 375M402 375L403 376L402 375M81 376L82 377L81 376M291 376L292 377L291 376M310 376L311 377L310 376M88 377L88 387L89 387L88 377M97 377L98 378L97 377M252 377L253 378L252 377M276 377L277 378L276 377M309 377L310 378L309 377M333 377L334 378L333 377M274 378L275 379L274 378M287 378L288 379L287 378M308 378L309 379L308 378M400 378L401 379L400 378M412 378L413 379L412 378M102 379L103 380L102 379M240 379L241 380L240 379M272 379L273 380L272 379M307 379L308 380L307 379M327 379L328 380L327 379M386 379L387 380L386 379M391 379L392 380L391 379M268 380L269 381L268 380M281 380L282 381L281 380M409 380L409 382L411 382L409 380M95 381L96 382L95 381M265.667 381.333L266.333 381.667L265.667 381.333M274.667 381.333L275.333 381.667L274.667 381.333M398 381L399 382L398 381z"/>
<path style="fill:#f9f8f8; stroke:none;" d="M55 382C70.9799 416.226 105.637 456.687 142 470L142 469C119.001 456.196 97.8118 437.35 81.2608 417C73.5645 407.537 65.6291 387.509 55 382z"/>
<path style="fill:#07a559; stroke:none;" d="M57 382L58 383L57 382M436 382L437 383L436 382z"/>
<path style="fill:#f9f8f8; stroke:none;" d="M437 382C411.533 415.376 389.999 447.845 352 469L352 470C379.629 459.884 405.902 432.328 422.573 409C427.073 402.702 438.347 390.09 437 382z"/>
<path style="fill:#07a559; stroke:none;" d="M438 382L439 383L438 382M302 383L303 384L302 383M383 383L384 384L383 383M388 383L389 384L388 383M97 384L98 385L97 384M102 384L103 385L102 384M391 384L392 385L391 384M396 384L397 385L396 384M437 384L438 385L437 384M299 385L300 386L299 385M434 385L435 386L434 385M57 386L58 387L57 386M425 386L426 387L425 386M436 386L437 387L436 386M60 387L61 388L60 387M72 387L73 388L72 387M104 387L105 388L104 387M108 387L109 388L108 387M385 387L386 388L385 387M421 387L422 388L421 387M58 388L59 389L58 388M77 388L78 389L77 388M88 388L89 389L88 388M294 388L295 389L294 388M379 388L380 389L379 388M416 388L417 389L416 388M66 389L67 390L66 389M81 389L82 390L81 389M87 389L88 390L87 389M412 389L413 390L412 389M427 389L428 390L427 389M240.333 390.667L240.667 391.333L240.333 390.667M408 390L409 391L408 390M431 390L432 391L431 390M102 391L103 392L102 391M107 391L108 392L107 391M287 391L288 392L287 391M358 391L359 392L358 391M386 391L387 392L386 391M391 391L392 392L391 391M112 392L113 393L112 392M284 392L285 393L284 392M365 392L366 393L365 392M381 392L382 393L381 392M425 392L426 393L425 392M61 393L62 394L61 393M280 393L281 394L280 393M375 393L376 394L375 393M432 393L433 394L432 393M275 394L276 395L275 394M354 394L355 395L354 394M65 395L66 396L65 395M105 395L106 396L105 395M241 395L242 396L241 395M264 395L264 396L268 396L264 395M388 395L389 396L388 395M428 395L429 396L428 395M111 396L112 397L111 396M251 396L252 397L251 396M351 396L352 397L351 396M361 396L362 397L361 396M382 396L383 397L382 396M116 397L117 398L116 397z"/>
<path style="fill:#f9f8f8; stroke:none;" d="M116 425C137.979 438.687 157.306 453.891 182 462.947C256.612 490.307 329.827 466.53 392 422C385.485 415.029 377.423 409.181 370 403.197C367.283 401.006 363.873 397.093 360 397.876C349.721 399.952 337.663 411.92 328 416.752C304.458 428.522 276.503 436.506 250 435.985C224.075 435.474 198.47 428.467 175 417.691C165.305 413.24 152.245 400.528 142.039 399.161C138.575 398.697 136.039 402.843 133.961 405.001C127.984 411.206 119.677 417.116 116 425z"/>
<path style="fill:#07a559; stroke:none;" d="M371 397L372 398L371 397M377 397L378 398L377 397M64 398L65 399L64 398M67 398L68 399L67 398M250 398L251 399L250 398M348 398L349 399L348 398M426 398L427 399L426 398M429 398L430 399L429 398M243 399L244 400L243 399M258 399L259 400L258 399M109 400L110 401L109 400M244 400L245 401L244 400M345 400L346 401L345 400M355 400L356 401L355 400M366 400L367 401L366 400M384 400L385 401L384 400M66 401L67 402L66 401M69 401L70 402L69 401M115 401L116 402L115 401M137 401L138 402L137 401M247 401L248 402L247 401M367 401L368 402L367 401M378 401L379 402L378 401M419 401L420 402L419 401M424 401L425 402L424 401M427 401L428 402L427 401M136 402L137 403L136 402M352 402L353 403L352 402M135 403L136 404L135 403M149 403L150 404L149 403M68 404L69 405L68 404M71 404L72 405L71 404M76 404L77 405L76 404M122 404L123 405L122 404M134 404L135 405L134 404M349 404L350 405L349 404M417 404L418 405L417 404M422 404L423 405L422 404M425 404L426 405L425 404M113 405L114 406L113 405M123 405L124 406L123 405M133 405L134 406L133 405M152 405L153 406L152 405M372 405L373 406L372 405M132 406L133 407L132 406M335 406L336 407L335 406M346 406L347 407L346 406M382 406L383 407L382 406M70 407L71 408L70 407M120 407L121 408L120 407M131 407L132 408L131 407M383 407L384 408L383 407M74 408L75 409L74 408M79 408L80 409L79 408M121 408L122 409L121 408M130 408L131 409L130 408M157 408L158 409L157 408M252 408L253 409L252 408M414 408L415 409L414 408M419 408L420 409L419 408M129 409L130 410L129 409M341 409L342 410L341 409M354 409L355 410L354 409z"/>
<path style="fill:#373535; stroke:none;" d="M357 433L362 431L361 426L364 429L369 427C367.303 422.986 354.786 402.536 350.238 413.215C348.222 417.946 354.957 428.632 357 433z"/>
<path style="fill:#07a559; stroke:none;" d="M244 410L245 411L244 410M248 410L249 411L248 410M378 410L379 411L378 410M73 411L74 412L73 411z"/>
<path style="fill:#373535; stroke:none;" d="M146 411L136 431L141 433L144 426L145 426C143.342 431.24 142.5 434.382 148 437C149.195 427.746 152.793 424.248 158 417C153.418 415.674 151.47 416.872 148 420L151 413L146 411z"/>
<path style="fill:#07a559; stroke:none;" d="M388 411L389 412L388 411M420 411L421 412L420 411M82 412L83 413L82 412M164 412L165 413L164 412M349 412L350 413L349 412M411 412L412 413L411 412M416 412L417 413L416 412M166 413L167 414L166 413M334 413L335 414L334 413M359 413L360 414L359 413M168 414L169 415L168 414M332 414L333 415L332 414M76 415L77 416L76 415M154 415L155 416L154 415M170 415L171 416L170 415M330 415L331 416L330 415z"/>
<path style="fill:#373535; stroke:none;" d="M344 415L340 417L350 437L355 435L344 415z"/>
<path style="fill:#07a559; stroke:none;" d="M384 415L385 416L384 415M80 416L81 417L80 416M149 416L150 417L149 416M172 416L173 417L172 416M315 416L316 417L315 416M328 416L329 417L328 416M345 416L346 417L345 416M355 416L356 417L355 416M394 416L395 417L394 416M142 417L143 418L142 417M174 417L175 418L174 417M326 417L327 418L326 417M350 417L351 418L350 417z"/>
<path style="fill:#f9f8f8; stroke:none;" d="M356.333 417.667L356.667 418.333L356.333 417.667z"/>
<path style="fill:#07a559; stroke:none;" d="M412 417L413 418L412 417M87 418L88 419L87 418M176 418L177 419L176 418M310 418L311 419L310 418M324 418L325 419L324 418M346 418L347 419L346 418M363 418L364 419L363 418M406 418L407 419L406 418M141 419L142 420L141 419M322 419L323 420L322 419z"/>
<path style="fill:#f9f8f8; stroke:none;" d="M357 419L360 423L357 419z"/>
<path style="fill:#07a559; stroke:none;" d="M389 419L390 420L389 419z"/>
<path style="fill:#373535; stroke:none;" d="M159.105 421.043C155.109 423.12 150.92 431.495 151.503 435.985C152.031 440.051 157.065 443.015 160.787 440.957C168.175 436.871 171.401 414.653 159.105 421.043z"/>
<path style="fill:#07a559; stroke:none;" d="M164 420L165 421L164 420M333 420L334 421L333 420z"/>
<path style="fill:#373535; stroke:none;" d="M340 439L337 435L333 436C334.752 444.473 346.991 443.307 345.238 435.012C343.883 428.596 335.846 429.288 333 424L336 427L340 425C337.636 418.824 327.975 419.718 328.542 426.989C329.105 434.202 339.052 432.185 340 439z"/>
<path style="fill:#07a559; stroke:none;" d="M337 420L338 421L337 420M390 420L391 421L390 420M81 421L82 422L81 421M157 421L158 422L157 421M183 421L184 422L183 421M302 421L303 422L302 421M357 421L358 422L357 421M359 421L360 422L359 421M412 421L413 422L412 421M85 422L86 423L85 422M109 422L109 426L110 426L109 422M167 422L168 423L167 422M315 422L316 423L315 422M329 422L330 423L329 422M339 422L340 423L339 422M366 422L367 423L366 422M86 423L87 424L86 423M151 423L152 424L151 423M188 423L189 424L188 423M389 423L390 424L389 423M407 423L408 424L407 423M150 424L151 425L150 424z"/>
<path style="fill:#f9f8f8; stroke:none;" d="M162 424L156 438L164 424L162 424z"/>
<path style="fill:#07a559; stroke:none;" d="M292 424L293 425L292 424M310 424L311 425L310 424M334 424L335 425L334 424M353 424L354 425L353 424M397 424L398 425L397 424M117 425L118 426L117 425M161 425L162 426L161 425z"/>
<path style="fill:#373535; stroke:none;" d="M172 425L164 445L169 447L172 439C184.636 441.869 182.563 427.92 172 425z"/>
<path style="fill:#07a559; stroke:none;" d="M288 425L289 426L288 425M307 425L308 426L307 425M323 425L324 426L323 425z"/>
<path style="fill:#373535; stroke:none;" d="M316 428L324 449L333 446L332 442L328 443L326 438L329 437L328 433L323 430L326 429L325 425L316 428z"/>
<path style="fill:#07a559; stroke:none;" d="M144 426L143 428L145 428L144 426M176 426L177 427L176 426M196 426L197 427L196 426M284 426L285 427L284 426M304 426L305 427L304 426M335 426L336 427L335 426M385 426L386 427L385 426M95 427L96 428L95 427M160 427L161 428L160 427M279 427L280 428L279 427M301 427L302 428L301 427M318 427L319 428L318 427M363 427L364 428L363 427M367 427L368 428L367 427M393 427L394 428L393 427M96 428L97 429L96 428M112 428L113 429L112 428M121 428L122 429L121 428M136 428L137 429L136 428M149 428L150 429L149 428M170 428L171 429L170 428M180 428L181 429L180 428M272.667 428.333L273.333 428.667L272.667 428.333M298 428L299 429L298 428M328 428L329 429L328 428M337 428L338 429L337 428M345 428L346 429L345 428M382 428L383 429L382 428M397 428L398 429L397 428M97 429L98 430L97 429M159 429L160 430L159 429M181 429L182 430L181 429M206 429L207 430L206 429M263.667 429.333L264.333 429.667L263.667 429.333M325 429L326 430L325 429M341 429L342 430L341 429M355 429L356 430L355 429M396 429L397 430L396 429M89 430L90 431L89 430M98 430L99 431L98 430M143 430L144 431L143 430M167 430L168 431L167 430M176 430L175 432L176 430z"/>
<path style="fill:#373535; stroke:none;" d="M185 430L178 451L187 454L189 450L185 449L186 444L190 445L191 441L188 440L189 436L193 437L194 433L185 430z"/>
<path style="fill:#07a559; stroke:none;" d="M186 430L187 431L186 430M210 430L211 431L210 430M291 430L292 431L291 430z"/>
<path style="fill:#373535; stroke:none;" d="M312 439L307 432L302 433L308 454L313 453L311 445L312 445C313.041 447.654 319.62 455.059 319.526 447.89C319.451 442.145 315.769 435.437 314 430C309.316 431.57 310.756 435.035 312 439z"/>
<path style="fill:#07a559; stroke:none;" d="M329 430L330 431L329 430M346 430L347 431L346 430M389 430L390 431L389 430M395 430L396 431L395 430M90 431L91 432L90 431M99 431L100 432L99 431M125 431L126 432L125 431z"/>
<path style="fill:#f9f8f8; stroke:none;" d="M176 431L174 436L176 431z"/>
<path style="fill:#07a559; stroke:none;" d="M189 431L190 432L189 431M214 431L215 432L214 431M314 431L315 432L314 431M353 431L354 432L353 431M360 431L361 432L360 431M394 431L395 432L394 431M403 431L404 432L403 431M91 432L92 433L91 432M100 432L101 433L100 432M117 432L118 433L117 432M139 432L140 433L139 432M166 432L167 433L166 432M219 432L220 433L219 432M282 432L283 433L282 432M317 432L318 433L317 432M323 432L324 433L323 432M331 432L332 433L331 432M347 432L348 433L347 432M386 432L387 433L386 432M402 432L403 433L402 432M92 433L93 434L92 433M101 433L102 434L101 433M148 433L149 434L148 433M151 433L152 434L151 433M168 433L169 434L168 433M225 433L226 434L225 433M276 433L277 434L276 433M335 433L336 434L335 433M354 433L355 434L354 433M401 433L402 434L401 433M93 434L94 435L93 434M129 434L130 435L129 434M165 434L166 435L165 434z"/>
<path style="fill:#373535; stroke:none;" d="M196 434C194.463 439.457 192.266 445.36 191.573 450.981C191.316 453.068 192.462 456.857 195.292 454.914C197.562 453.355 198.126 449.145 200 447C199.003 451.834 196.661 456.939 203 458C205.39 446.377 210.775 437.059 196 434z"/>
<path style="fill:#07a559; stroke:none;" d="M198 434L199 435L198 434M232 434L233 435L232 434M268.667 434.333L269.333 434.667L268.667 434.333M310 434L311 435L310 434M315 434L316 435L315 434M400 434L401 435L400 434M94 435L95 436L94 435M121 435L122 436L121 435M244 435L244 436L258 436L244 435M293 435L294 436L293 435z"/>
<path style="fill:#373535; stroke:none;" d="M294.019 435.617C284.73 437.806 289.699 459.583 298.981 457.522C308.208 455.474 303.695 433.335 294.019 435.617z"/>
<path style="fill:#07a559; stroke:none;" d="M298 435L299 436L298 435M302 435L303 436L302 435M335 435L336 436L335 435M337 435L338 436L337 435M399 435L400 436L399 435M95 436L96 437L95 436M132 436L133 437L132 436M164 436L165 437L164 436M180 436L181 437L180 436M190 436L191 437L190 436M309 436L310 437L309 436M351 436L352 437L351 436M398 436L399 437L398 436M96 437L97 438L96 437M316 437L317 438L316 437M319 437L320 438L319 437M125 438L126 439L125 438M163 438L164 439L163 438M166 438L167 439L166 438z"/>
<path style="fill:#373535; stroke:none;" d="M211 438L205 459L211 460L212 456L213 456L213 460L219 462L219 439L211 438z"/>
<path style="fill:#07a559; stroke:none;" d="M214 438L215 439L214 438M303 438L304 439L303 438M345 438L346 439L345 438M367 438L368 439L367 438M152 439L153 440L152 439M194 439L195 440L194 439z"/>
<path style="fill:#f9f8f8; stroke:none;" d="M200 439L200 444L201 444L202 439L200 439z"/>
<path style="fill:#07a559; stroke:none;" d="M277 439L278 440L277 439z"/>
<path style="fill:#373535; stroke:none;" d="M274 440L277 462C280.183 461.233 285.781 461.467 287.806 458.486C290.087 455.13 288.12 442.285 284.683 440.029C281.731 438.09 277.213 439.594 274 440z"/>
<path style="fill:#f9f8f8; stroke:none;" d="M294 439L299 454L294 439z"/>
<path style="fill:#07a559; stroke:none;" d="M128 440L129 441L128 440M153 440L154 441L153 440M219 440L219 444L220 444L219 440M225 440L226 441L225 440z"/>
<path style="fill:#373535; stroke:none;" d="M228 460L227 460L227 455L222 454C221.405 460.254 229.551 467.849 233.257 459.772C236.215 453.324 226.793 449.148 230 444L229 447L234 448C235.309 440.971 225.601 436.923 222.758 444.109C220.292 450.341 228.522 453.79 228 460z"/>
<path style="fill:#07a559; stroke:none;" d="M230 440L231 441L230 440M273.333 440.667L273.667 441.333L273.333 440.667M317 440L318 441L317 440M110 441L111 442L110 441M155 441L156 442L155 441M171 441L172 442L171 441M261.667 441.333L262.333 441.667L261.667 441.333z"/>
<path style="fill:#373535; stroke:none;" d="M267 441L267 450L266 450L264 442L259 442L260 464L265 463L264 455L265 455C266.345 459.85 267.72 462.59 273 463L271 441L267 441z"/>
<path style="fill:#07a559; stroke:none;" d="M294 441L295 442L294 441M304 441L305 442L304 441M342 441L343 442L342 441M362 441L363 442L362 441M383 441L384 442L383 441M105 442L106 443L105 442M111 442L112 443L111 442M141 442L142 443L141 442M199.333 442.667L199.667 443.333L199.333 442.667M201 442L202 443L201 442z"/>
<path style="fill:#373535; stroke:none;" d="M238 442L237 464L242 464L243 442L238 442z"/>
<path style="fill:#07a559; stroke:none;" d="M250 442L250 452L251 452L250 442z"/>
<path style="fill:#373535; stroke:none;" d="M251 442L251 464L256 464L256 442L251 442z"/>
<path style="fill:#07a559; stroke:none;" d="M321 442L322 443L321 442M339 442L340 443L339 442M371 442L372 443L371 442M388 442L389 443L388 442M106 443L107 444L106 443M164 443L165 444L164 443M193 443L194 444L193 443M222 443L223 444L222 443M234 443L235 444L234 443M279 443L280 444L279 443z"/>
<path style="fill:#f9f8f8; stroke:none;" d="M280 443L281 457L283 457L280 443z"/>
<path style="fill:#07a559; stroke:none;" d="M318 443L319 444L318 443M332 443L333 444L332 443M387 443L388 444L387 443M104 444L105 445L104 444M209 444L210 445L209 444M229.333 444.667L229.667 445.333L229.333 444.667M264 444L265 445L264 444M271.333 444.667L271.667 445.333L271.333 444.667M305 444L306 445L305 444M357 444L358 445L357 444M389 444L390 445L389 444M105 445L106 446L105 445M214 445L215 446L214 445M227.333 445.667L227.667 446.333L227.333 445.667M237 445L237 448L238 448L237 445M287.333 445.667L287.667 446.333L287.333 445.667M289 445L290 446L289 445M311 445L312 446L311 445M355 445L356 446L355 445M388 445L389 446L388 445M116 446L117 447L116 446M137 446L138 447L137 446M169 446L170 447L169 446M179 446L180 447L179 446M185 446L186 447L185 446M204 446L205 447L204 446z"/>
<path style="fill:#f9f8f8; stroke:none;" d="M214 446L213 453L214 453L214 446z"/>
<path style="fill:#07a559; stroke:none;" d="M295 446L296 447L295 446M297 446L298 447L297 446M330 446L331 447L330 446M377 446L378 447L377 446M192 447L193 448L192 447M199 447L200 448L199 447M208 447L209 448L208 447M213 447L214 448L213 447M230.667 447.333L231.333 447.667L230.667 447.333M234 447L235 448L234 447M274.333 447.667L274.667 448.333L274.333 447.667M303 447L304 448L303 447M323 447L324 448L323 447M112 448L113 449L112 448M140 448L141 449L140 448M151 448L152 449L151 448M204 448L205 449L204 448M214.333 448.667L214.667 449.333L214.333 448.667M313 448L314 449L313 448M325 448L326 449L325 448M361 448L362 449L361 448M381 448L382 449L381 448M110 449L111 450L110 449M178 449L179 450L178 449M266 449L267 450L266 449M290 449L291 450L290 449M383 449L384 450L383 449M121 450L122 451L121 450M197 450L198 451L197 450M207 450L208 451L207 450M231 450L232 451L231 450M280 450L281 451L280 450M282.333 450.667L282.667 451.333L282.333 450.667M296 450L297 451L296 450M298 450L299 451L298 450M320 450L321 451L320 450M372 450L373 451L372 450M145 451L146 452L145 451M179 451L180 452L179 451M204 451L205 452L204 451M232 451L233 452L232 451M315 451L316 452L315 451M117 452L118 453L117 452M182 452L183 453L182 452M212 452L213 453L212 452M225 452L226 453L225 452M354 452L355 453L354 452M376 452L377 453L376 452M125 453L126 454L125 453M185 453L186 454L185 453M187 453L188 454L187 453M198 453L199 454L198 453M288 453L289 454L288 453M291 453L292 454L291 453M352 453L353 454L352 453M368 453L369 454L368 453M190 454L191 455L190 454M223.667 454.333L224.333 454.667L223.667 454.333M259.333 454.667L259.667 455.333L259.333 454.667M350 454L351 455L350 454M121 455L122 456L121 455M191 455L192 456L191 455M203 455L204 456L203 455M221.333 455.667L221.667 456.333L221.333 455.667M275 455L276 456L275 455M348 455L349 456L348 455M365 455L366 456L365 455M372 455L373 456L372 455M375 455L376 456L375 455M195 456L196 457L195 456M212 456L213 457L212 456M333 456L334 457L333 456M346 456L347 457L346 456M198 457L199 458L198 457M226.333 457.667L226.667 458.333L226.333 457.667M242 457L242 460L243 460L242 457M294 457L295 458L294 457M331 457L332 458L331 457M122 458L123 459L122 458M125 458L126 459L125 458M171 458L172 459L171 458M213 458L214 459L213 458M221 458L222 459L221 458M272 458L272 461L273 461L272 458M288 458L289 459L288 458M173 459L174 460L173 459M206 459L207 460L206 459M227 459L228 460L227 459M264.333 459.667L264.667 460.333L264.333 459.667M266 459L267 460L266 459M326 459L327 460L326 459M346 459L347 460L346 459M125 460L126 461L125 460M128 460L129 461L128 460M135 460L136 461L135 460M213 460L214 461L213 460M233 460L234 461L233 460M285 460L286 461L285 460M358 460L359 461L358 460M365 460L366 461L365 460M368 460L369 461L368 460M146 461L147 462L146 461M178 461L179 462L178 461M217 461L218 462L217 461M276 461L277 462L276 461M278.667 461.333L279.333 461.667L278.667 461.333M321 461L322 462L321 461M347 461L348 462L347 461M128 462L129 463L128 462M138 462L139 463L138 462M224 462L225 463L224 462M231 462L232 463L231 462M267 462L268 463L267 462M318 462L319 463L318 462M362 462L363 463L362 462M183 463L184 464L183 463M262.667 463.333L263.333 463.667L262.667 463.333M348 463L349 464L348 463M186 464L187 465L186 464M359 464L360 465L359 464M133 465L134 466L133 465M189 465L190 466L189 465M360 465L361 466L360 465M137 466L138 467L137 466M192 466L193 467L192 466M306 466L307 467L306 466M356 466L357 467L356 466M195 467L196 468L195 467M303 467L304 468L303 467M138 468L139 469L138 468M140 468L141 469L140 468M199 468L200 469L199 468M299 468L300 469L299 468M353 468L354 469L353 468M355 468L356 469L355 468M207 470L208 471L207 470M291 470L292 471L291 470M211 471L212 472L211 471M286 471L287 472L286 471M216.667 472.333L217.333 472.667L216.667 472.333M281 472L282 473L281 472M223 473L224 474L223 473M274.667 473.333L275.333 473.667L274.667 473.333M231.667 474.333L232.333 474.667L231.667 474.333M265.667 474.333L266.333 474.667L265.667 474.333z"/>
</svg>
